HIERARCHY
ROOT hip
{
  OFFSET 0.0 0.0 0.0
  CHANNELS 6 Xposition Yposition Zposition Zrotation Yrotation Xrotation
  JOINT torso
  {
    OFFSET 0.0 0.0 0.0
    CHANNELS 3 Zrotation Xrotation Yrotation
    JOINT neck
    {
      OFFSET -31.42098999999993 328.8025209999999 74.3554680000002
      CHANNELS 3 Zrotation Xrotation Yrotation
      JOINT head
      {
        OFFSET 3.3519900000001144 303.81732099999994 206.53942900000015
        CHANNELS 3 Zrotation Xrotation Yrotation
        End Site
        {
          OFFSET 0.0 0.0 0.0
        }
      }
    }
    JOINT left_collar
    {
      OFFSET -31.42098999999993 328.8025209999999 74.3554680000002
      CHANNELS 3 Zrotation Xrotation Yrotation
      JOINT left_upper_arm
      {
        OFFSET -124.490479 -8.162841999999841 8.226441000000023
        CHANNELS 3 Zrotation Xrotation Yrotation
        JOINT left_forearm
        {
          OFFSET -253.595764 -1.5758060000000569 105.0729980000001
          CHANNELS 3 Zrotation Xrotation Yrotation
          JOINT left_hand
          {
            OFFSET -269.48803699999996 0.1478270000000066 -55.346191999999974
            CHANNELS 3 Zrotation Xrotation Yrotation
            End Site
            {
              OFFSET 0.0 0.0 0.0
            }
          }
        }
      }
    }
    JOINT right_collar
    {
      OFFSET -31.42098999999993 328.8025209999999 74.3554680000002
      CHANNELS 3 Zrotation Xrotation Yrotation
      JOINT right_upper_arm
      {
        OFFSET 162.02484099999998 0.46441600000002836 2.2303470000001653
        CHANNELS 3 Zrotation Xrotation Yrotation
        JOINT right_forearm
        {
          OFFSET 240.01246700000004 -25.835875999999985 121.34179699999959
          CHANNELS 3 Zrotation Xrotation Yrotation
          JOINT right_hand
          {
            OFFSET 252.48539699999992 18.910399999999868 -67.53466800000001
            CHANNELS 3 Zrotation Xrotation Yrotation
            End Site
            {
              OFFSET 0.0 0.0 0.0
            }
          }
        }
      }
    }
  }
}
MOTION
Frames: 6
Frame Time: 0.01
-286.29400599999974 264.62118499999974 1568.094238 0.3435010428528224 -9.942821213162048 10.807726486227809 2.7274471260460595 3.082162230684688 -0.2509997909434826 1.7084330748079113 -0.051424896156615274 -1.1611180692578469 0.0 0.0 0.0 -1.6972423356155748 0.41062450133169937 -10.23242481102294 60.014350656930816 22.397004986999836 7.222368032760192 27.900986363499467 -1.804235777881355 -15.990954685138068 0.0 0.0 0.0 -4.96317288655245 -0.3587255921879593 -10.535127599270863 -53.2818437473574 21.590900580048537 -11.85002670977287 -38.2068545374197 -3.204507665696966 25.823157629035347 0.0 0.0 0.0
-286.2323299999997 264.61621099999974 1568.238892 0.28438191083002334 -9.977212633343875 10.854454956507983 2.7893380567751733 3.1050000560277584 -0.2607037355839908 1.7209581279466588 -0.03271676103671184 -1.1696892338962017 0.0 0.0 0.0 -1.7303702020969163 0.4074366840011476 -10.27139717565393 60.02222987531556 22.418188712379127 7.194236383051855 27.88365903841187 -1.8066285469738195 -15.976664177080442 0.0 0.0 0.0 -4.870162337298686 -0.3567226626064002 -10.667812200032227 -53.39507078898059 21.677488000870778 -11.808457214807714 -38.26655002094266 -3.227470886861146 25.746442426373847 0.0 0.0 0.0
-286.1819459999997 264.7286379999997 1568.294189 0.12505058236534988 -9.864093307235766 10.703070127996732 2.9242889848581504 3.0278271561251575 -0.29722881583870114 1.6779702169033963 -0.0731116872445554 -1.1403375780650404 0.0 0.0 0.0 -1.687644237046945 0.4041254196935035 -10.077733383604567 59.99493426171099 22.42242840861319 7.168284272789093 27.904917095871767 -1.812814358793154 -15.957534894816904 0.0 0.0 0.0 -4.837036997627496 -0.3466236335714381 -10.479430641282182 -53.35292354365691 21.682957493972342 -11.769293120450268 -38.30384738807008 -3.234168081673395 25.726930725931553 0.0 0.0 0.0
-286.1349489999997 264.6416629999997 1568.474976 0.3066500643427135 -10.005485205816605 10.779163330850519 2.762761434460846 3.129496149985774 -0.2524136770321366 1.7180330689314816 -0.02647540303836639 -1.167719213143025 0.0 0.0 0.0 -1.7036968551420053 0.4094052442543744 -10.22839140405365 59.96260682026622 22.44101226776765 7.115948731788072 27.880091076080962 -1.8124221035502335 -15.952395554056691 0.0 0.0 0.0 -4.883065701582173 -0.3558155346097874 -10.619470692630895 -53.32031591687656 21.725433163831102 -11.683561861961643 -38.292048034116156 -3.2360111008105608 25.718458678240363 0.0 0.0 0.0
-286.1188049999997 264.70660399999974 1568.576782 0.22514368908783838 -9.939801498299316 10.675805711050527 2.8213569067293314 3.079651001732925 -0.270203338143686 1.684685609611085 -0.018105845605866637 -1.145075850872044 0.0 0.0 0.0 -1.6959629370901694 0.4040129492670138 -10.100563748887152 59.98055532497081 22.457308248067342 7.102690300791437 27.89662052183034 -1.8174395864762452 -15.93669725162466 0.0 0.0 0.0 -4.847675230746239 -0.34867158719450453 -10.510126451873385 -53.30066198539427 21.732785270726033 -11.658298793197012 -38.3008296811509 -3.2343371324818087 25.725881350854408 0.0 0.0 0.0
-286.06033299999973 264.6906129999997 1568.741089 0.1326254562476333 -9.97338657511181 10.750207662994598 2.916529646893735 3.0924724200778684 -0.28780493045766414 1.6708714042443937 0.043792797828457054 -1.1358828907624814 0.0 0.0 0.0 -1.7150540846463194 0.40438830192254743 -10.165505754380021 59.97455580030143 22.476357745102323 7.068167517899891 27.865201398445862 -1.8142936012543265 -15.940829530780688 0.0 0.0 0.0 -4.8633647994741755 -0.35184991162550533 -10.559096327101313 -53.289385436836454 21.75745788135332 -11.614161587517048 -38.290080474441666 -3.2365223508468244 25.716291714295703 0.0 0.0 0.0
